<svg width="157" height="136" viewBox="0 0 157 136" fill="none" xmlns="http://www.w3.org/2000/svg">
<path fill-rule="evenodd" clip-rule="evenodd" d="M3.72559 4.20703V133.062H93.1143L122.901 124.961L143.178 107.384L153.096 79.7363V47.7939L138.264 22.1299L112.393 7.55762L87.4668 5.4668L3.72559 4.20703Z" fill="white"/>
<path fill-rule="evenodd" clip-rule="evenodd" d="M6.37094 6.36947V129.097H80.9348C125.961 129.097 150.454 108.123 150.454 67.5762C150.454 25.9081 123.904 6.36947 80.9348 6.36947H6.37094ZM80.9348 0C146.965 0 156.824 42.3421 156.824 67.5762C156.824 111.358 129.874 135.469 80.9348 135.469C80.9348 135.469 1.59763 135.469 0 135.469C0 133.865 0 1.60008 0 0C1.59763 0 80.9348 0 80.9348 0Z" fill="#0A0B09"/>
<path fill-rule="evenodd" clip-rule="evenodd" d="M16.642 119.339H40.5115V76.8468H16.642V119.339Z" fill="#0A0B09"/>
<path fill-rule="evenodd" clip-rule="evenodd" d="M43.3754 55.4599C43.3754 63.6541 36.7357 70.2972 28.5415 70.2972C20.3512 70.2972 13.7052 63.6541 13.7052 55.4599C13.7052 47.272 20.3512 40.626 28.5415 40.626C36.7357 40.626 43.3754 47.272 43.3754 55.4599Z" fill="#0A0B09"/>
<path fill-rule="evenodd" clip-rule="evenodd" d="M52.3733 48.5486C52.3733 52.386 52.3733 58.5607 52.3733 62.3967C54.4761 62.3967 56.6238 62.3967 56.6238 62.3967C59.569 62.3967 62.289 61.5455 62.289 55.3639C62.289 49.3229 59.2621 48.5486 56.6238 48.5486C56.6238 48.5486 54.4761 48.5486 52.3733 48.5486ZM123.279 41.6607H130.155C130.155 41.6607 130.155 57.337 130.155 62.3967C131.68 62.3967 135.867 62.3967 140.344 62.3967C137.549 24.7711 107.95 16.642 81.0548 16.642H52.3792V41.6749H56.6238C64.3624 41.6749 69.1704 46.9226 69.1704 55.3639C69.1704 64.0731 64.4779 69.2717 56.6238 69.2717H52.3792V119.361H81.0548C124.784 119.361 140.002 99.054 140.539 69.2717H123.279V41.6607ZM104.122 57.0673H109.096L106.822 49.2617H106.409L104.122 57.0673ZM93.3923 69.2801L101.719 41.6598H111.501L119.825 69.2801H112.667L111.107 63.937H102.113L100.548 69.2801H93.3923ZM90.0904 62.3967V69.2717H73.0803V41.671H89.5412V48.5437C89.5412 48.5437 83.6832 48.5437 79.9569 48.5437C79.9569 49.4913 79.9569 50.5779 79.9569 51.7433H89.0214V58.614H79.9569C79.9569 59.9938 79.9569 61.2949 79.9569 62.3967C83.7909 62.3967 90.0904 62.3967 90.0904 62.3967Z" fill="#D50172"/>
</svg>
