<svg xmlns="http://www.w3.org/2000/svg" width="550" height="550" fill="none" baseProfile="tiny-ps" version="1.2">
	<title>skygate.nl</title>
	<path fill="#A09D9A" d="M451.435 460.689l56.218-41.617c4.813-3.579 7.68-9.202 7.782-15.235l3.789-252.766c0-.92-.512-1.84-1.331-2.351l-68.301-40.288c-1.946-1.124-4.301.512-3.994 2.659 4.404 26.994 21.197 150.003-2.764 334.055-.103.409 0 .818.102 1.227l4.301 12.986c.614 1.739 2.662 2.454 4.198 1.33z" />
	<path fill="#545454" d="M515.435 403.939l1.024 5.419c1.434 7.362-.717 14.929-5.939 20.348l-.102.103-55.808 47.547c-1.024.92-2.56.409-2.97-.921l-3.994-15.44c-.204-.715.103-1.329.615-1.84l63.385-50.103c1.229-.921 4.096-6.749 3.789-5.113z" />
	<path fill="url(#paint0_linear)" d="M47.058 114.977h-3.072c-3.584 0-5.837 3.987-3.994 7.055l14.643 23.927c.922 1.533.308 3.681-1.433 4.294l-6.144 2.454v232.52s1.843 51.023 28.364 64.316c26.522 13.293 198.861 49.183 350.311 32.107l23.04-1.227c5.427-.307 8.294-6.544 4.915-10.839l-5.325-6.85-5.632-16.974c0-.511 26.522-264.729 1.946-340.293l-137.933 19.53c-6.349-1.022-12.288-2.045-18.534-3.067l-12.186-6.135c-6.656-1.534-13.005-3.068-19.558-4.602h-38.708c-7.987-3.272-14.95-6.237-22.937-9.509-6.349-2.659-11.879-4.908-18.227-7.567h-40.448l-15.36 2.045c-8.602-.92-16.794-1.84-25.293-2.76L30.367 77.45" />
	<path fill="url(#paint1_linear)" d="M249.4 482.059s38.707-211.66 27.546-275.67l55.705-84.766 118.477-16.156s26.624 84.971-1.946 340.293l4.916 15.133s15.564 15.645 1.228 19.53c-14.233 3.886-23.859 1.227-23.859 1.227s-79.257 13.804-182.067.409z" />
	<path fill="#6D6D6D" d="M153.042 94.22L24.53 71.212l22.528 43.764L138.5 94.219h14.541z" />
	<path fill="url(#paint2_linear)" d="M328.862 69.577l11.981 15.542c5.223 6.749 14.746 7.976 21.607 2.965l6.041-4.499c2.765-2.147 6.144-3.272 9.728-3.476h.41c7.577-.307 14.848 2.658 19.968 8.282h3.686c3.379 0 6.656.818 9.626 2.352l17.92 9.509c3.277 1.739 6.758 2.863 10.445 3.477l27.238 4.397a26.016 26.016 0 016.758 2.147l51.712 25.256c2.458 1.227 2.663 4.601.41 6.135l-58.163 39.571c-3.072 2.148-7.373.409-8.09-3.169l-11.469-51.535a19.731 19.731 0 00-22.016-15.236l-118.988 16.77c-6.861 1.022-13.927-.205-20.173-3.272l-1.946-1.023c-12.288-6.135-25.907-9.305-39.629-9.305h-30.617c-6.963 0-13.722-2.761-18.637-7.771-5.939-5.93-14.029-9.305-22.426-9.305h-35.532a39.66 39.66 0 00-4.916.307l-15.462 2.045a44.06 44.06 0 01-20.582-2.147L24.53 71.213c-.308-.102-.205-.511.102-.511l75.981.204c2.56 0 5.12.307 7.68.92l36.966 9.203c2.355.614 4.813.92 7.271.92h35.635c2.765 0 5.529.41 8.089 1.33l15.463 5.214 8.397 2.966c10.444 3.68 21.913 2.454 31.334-3.17l50.483-24.95c9.319-4.6 20.583-1.942 26.931 6.238z" />
	<defs>
		<linearGradient id="paint0_linear" x1="30.39" x2="455.198" y1="281.849" y2="281.849" gradientUnits="userSpaceOnUse">
			<stop offset=".142" stop-color="#C5C5C3" />
			<stop offset=".154" stop-color="#C8C8C6" />
			<stop offset=".25" stop-color="#D9D8D5" />
			<stop offset=".369" stop-color="#E4E3DF" />
			<stop offset=".536" stop-color="#EBE9E5" />
			<stop offset="1" stop-color="#EDEBE7" />
		</linearGradient>
		<linearGradient id="paint1_linear" x1="462.31" x2="249.375" y1="296.763" y2="296.763" gradientUnits="userSpaceOnUse">
			<stop stop-color="#C5C5C3" />
			<stop offset=".459" stop-color="#D5D4D1" />
			<stop offset="1" stop-color="#EDEBE7" />
		</linearGradient>
		<linearGradient id="paint2_linear" x1="24.336" x2="527.984" y1="121.69" y2="121.69" gradientUnits="userSpaceOnUse">
			<stop offset=".018" stop-color="#2B2B2A" />
			<stop offset=".191" stop-color="#2E2E2D" />
			<stop offset=".31" stop-color="#373736" />
			<stop offset=".412" stop-color="#464645" />
			<stop offset=".505" stop-color="#5C5C5B" />
			<stop offset=".513" stop-color="#5E5E5D" />
			<stop offset=".785" stop-color="#6F6F6D" />
			<stop offset=".935" stop-color="#7A7A78" />
		</linearGradient>
	</defs>
</svg>