<svg width="457" height="70" viewBox="0 0 457 70" fill="none" xmlns="http://www.w3.org/2000/svg">
<path d="M288.006 27.227C288.014 27.076 288.031 26.926 288.059 26.778C288.032 26.925 288.014 27.075 288.006 27.227Z" fill="#FFDC69"/>
<path d="M323.529 0.116989C322.653 0.351989 321.859 0.940996 321.394 1.883L318.005 8.74899L321.394 1.883C321.86 0.940996 322.653 0.352989 323.529 0.116989Z" fill="#FFDC69"/>
<path d="M306.089 21.833L290.897 24.04C290.204 24.14 289.616 24.43 289.154 24.836C289.616 24.43 290.204 24.142 290.897 24.042L306.089 21.833Z" fill="#FFDC69"/>
<path d="M300.624 66.163C300.625 66.102 300.637 66.038 300.643 65.975C300.638 66.038 300.626 66.101 300.624 66.163Z" fill="#FFDC69"/>
<path d="M289.025 29.802C288.688 29.474 288.447 29.105 288.279 28.716C288.447 29.103 288.689 29.474 289.025 29.802L304.274 44.665L301.083 63.272L304.275 44.663L289.025 29.802Z" fill="#FFDC69"/>
<path d="M357.95 24.041L336.876 20.979L327.451 1.88399C326.831 0.627987 325.627 0 324.422 0V59.305L305.574 69.214C303.406 70.354 300.917 68.885 300.646 66.652C300.917 68.885 303.406 70.354 305.574 69.214L324.422 59.305L343.27 69.214C345.748 70.517 348.645 68.413 348.172 65.653L344.573 44.665L359.822 29.802C361.827 27.848 360.721 24.443 357.95 24.041Z" fill="#FFDC69"/>
<path d="M305.575 69.215L324.423 59.306V0.000991821C324.122 0.000991821 323.821 0.040988 323.528 0.118988C322.652 0.353988 321.858 0.942995 321.393 1.88499L318.004 8.75099L311.968 20.981L306.087 21.836L290.895 24.044C290.202 24.144 289.614 24.432 289.152 24.838C288.921 25.041 288.722 25.274 288.557 25.528C288.31 25.908 288.14 26.336 288.057 26.78C288.029 26.928 288.012 27.079 288.004 27.229C287.978 27.73 288.07 28.239 288.278 28.719C288.446 29.107 288.687 29.477 289.024 29.805L304.273 44.668L301.081 63.277L300.673 65.657C300.654 65.766 300.65 65.872 300.641 65.978C300.637 66.04 300.624 66.104 300.622 66.166C300.618 66.333 300.626 66.496 300.645 66.656C300.918 68.885 303.407 70.355 305.575 69.215Z" fill="#FFC864"/>
<path d="M192.006 27.227C192.014 27.076 192.031 26.926 192.059 26.778C192.032 26.925 192.014 27.075 192.006 27.227Z" fill="#FFDC69"/>
<path d="M227.529 0.116989C226.653 0.351989 225.859 0.940996 225.394 1.883L222.005 8.74899L225.394 1.883C225.86 0.940996 226.653 0.352989 227.529 0.116989Z" fill="#FFDC69"/>
<path d="M210.089 21.833L194.897 24.04C194.204 24.14 193.616 24.43 193.154 24.836C193.616 24.43 194.204 24.142 194.897 24.042L210.089 21.833Z" fill="#FFDC69"/>
<path d="M204.624 66.163C204.625 66.102 204.637 66.038 204.643 65.975C204.638 66.038 204.626 66.101 204.624 66.163Z" fill="#FFDC69"/>
<path d="M193.025 29.802C192.688 29.474 192.447 29.105 192.279 28.716C192.447 29.103 192.689 29.474 193.025 29.802L208.274 44.665L205.083 63.272L208.275 44.663L193.025 29.802Z" fill="#FFDC69"/>
<path d="M261.95 24.041L240.876 20.979L231.451 1.88399C230.831 0.627987 229.627 0 228.422 0V59.305L209.574 69.214C207.406 70.354 204.917 68.885 204.646 66.652C204.917 68.885 207.406 70.354 209.574 69.214L228.422 59.305L247.27 69.214C249.748 70.517 252.645 68.413 252.172 65.653L248.573 44.665L263.822 29.802C265.827 27.848 264.721 24.443 261.95 24.041Z" fill="#FFDC69"/>
<path d="M209.575 69.215L228.423 59.306V0.000991821C228.122 0.000991821 227.821 0.040988 227.528 0.118988C226.652 0.353988 225.858 0.942995 225.393 1.88499L222.004 8.75099L215.968 20.981L210.087 21.836L194.895 24.044C194.202 24.144 193.614 24.432 193.152 24.838C192.921 25.041 192.722 25.274 192.557 25.528C192.31 25.908 192.14 26.336 192.057 26.78C192.029 26.928 192.012 27.079 192.004 27.229C191.978 27.73 192.07 28.239 192.278 28.719C192.446 29.107 192.687 29.477 193.024 29.805L208.273 44.668L205.081 63.277L204.673 65.657C204.654 65.766 204.65 65.872 204.641 65.978C204.637 66.04 204.624 66.104 204.622 66.166C204.618 66.333 204.626 66.496 204.645 66.656C204.918 68.885 207.407 70.355 209.575 69.215Z" fill="#FFC864"/>
<path d="M0.00630188 27.227C0.0143019 27.076 0.0312957 26.926 0.0592957 26.778C0.0322957 26.925 0.0143019 27.075 0.00630188 27.227Z" fill="#FFDC69"/>
<path d="M35.5293 0.116989C34.6533 0.351989 33.8593 0.940996 33.3943 1.883L30.0053 8.74899L33.3943 1.883C33.8603 0.940996 34.6533 0.352989 35.5293 0.116989Z" fill="#FFDC69"/>
<path d="M18.0893 21.833L2.89729 24.04C2.20429 24.14 1.6163 24.43 1.1543 24.836C1.6163 24.43 2.20429 24.142 2.89729 24.042L18.0893 21.833Z" fill="#FFDC69"/>
<path d="M12.6243 66.163C12.6253 66.102 12.6373 66.038 12.6433 65.975C12.6383 66.038 12.6263 66.101 12.6243 66.163Z" fill="#FFDC69"/>
<path d="M1.0253 29.802C0.688299 29.474 0.447297 29.105 0.279297 28.716C0.447297 29.103 0.689299 29.474 1.0253 29.802L16.2743 44.665L13.0833 63.272L16.2753 44.663L1.0253 29.802Z" fill="#FFDC69"/>
<path d="M69.9503 24.041L48.8763 20.979L39.4513 1.88399C38.8313 0.627987 37.6273 0 36.4223 0V59.305L17.5743 69.214C15.4063 70.354 12.9173 68.885 12.6463 66.652C12.9173 68.885 15.4063 70.354 17.5743 69.214L36.4223 59.305L55.2703 69.214C57.7483 70.517 60.6453 68.413 60.1723 65.653L56.5733 44.665L71.8223 29.802C73.8273 27.848 72.7213 24.443 69.9503 24.041Z" fill="#FFDC69"/>
<path d="M17.5753 69.215L36.4233 59.306V0.000991821C36.1223 0.000991821 35.8213 0.040988 35.5283 0.118988C34.6523 0.353988 33.8583 0.942995 33.3933 1.88499L30.0043 8.75099L23.9683 20.981L18.0873 21.836L2.89529 24.044C2.20229 24.144 1.61429 24.432 1.15229 24.838C0.921295 25.041 0.722294 25.274 0.557294 25.528C0.310294 25.908 0.140294 26.336 0.0572935 26.78C0.0292935 26.928 0.0122997 27.079 0.00429973 27.229C-0.0217003 27.73 0.0702865 28.239 0.278287 28.719C0.446287 29.107 0.687289 29.477 1.02429 29.805L16.2733 44.668L13.0813 63.277L12.6733 65.657C12.6543 65.766 12.6503 65.872 12.6413 65.978C12.6373 66.04 12.6243 66.104 12.6223 66.166C12.6183 66.333 12.6263 66.496 12.6453 66.656C12.9183 68.885 15.4073 70.355 17.5753 69.215Z" fill="#FFC864"/>
<path d="M384.006 27.227C384.014 27.076 384.031 26.926 384.059 26.778C384.032 26.925 384.014 27.075 384.006 27.227Z" fill="#FFDC69"/>
<path d="M419.529 0.116989C418.653 0.351989 417.859 0.940996 417.394 1.883L414.005 8.74899L417.394 1.883C417.86 0.940996 418.653 0.352989 419.529 0.116989Z" fill="#FFDC69"/>
<path d="M402.089 21.833L386.897 24.04C386.204 24.14 385.616 24.43 385.154 24.836C385.616 24.43 386.204 24.142 386.897 24.042L402.089 21.833Z" fill="#FFDC69"/>
<path d="M396.624 66.163C396.625 66.102 396.637 66.038 396.643 65.975C396.638 66.038 396.626 66.101 396.624 66.163Z" fill="#FFDC69"/>
<path d="M385.025 29.802C384.688 29.474 384.447 29.105 384.279 28.716C384.447 29.103 384.689 29.474 385.025 29.802L400.274 44.665L397.083 63.272L400.275 44.663L385.025 29.802Z" fill="#FFDC69"/>
<path d="M453.95 24.041L432.876 20.979L423.451 1.88399C422.831 0.627987 421.627 0 420.422 0V59.305L401.574 69.214C399.406 70.354 396.917 68.885 396.646 66.652C396.917 68.885 399.406 70.354 401.574 69.214L420.422 59.305L439.27 69.214C441.748 70.517 444.645 68.413 444.172 65.653L440.573 44.665L455.822 29.802C457.827 27.848 456.721 24.443 453.95 24.041Z" fill="#FFDC69"/>
<path d="M401.575 69.215L420.423 59.306V0.000991821C420.122 0.000991821 419.821 0.040988 419.528 0.118988C418.652 0.353988 417.858 0.942995 417.393 1.88499L414.004 8.75099L407.968 20.981L402.087 21.836L386.895 24.044C386.202 24.144 385.614 24.432 385.152 24.838C384.921 25.041 384.722 25.274 384.557 25.528C384.31 25.908 384.14 26.336 384.057 26.78C384.029 26.928 384.012 27.079 384.004 27.229C383.978 27.73 384.07 28.239 384.278 28.719C384.446 29.107 384.687 29.477 385.024 29.805L400.273 44.668L397.081 63.277L396.673 65.657C396.654 65.766 396.65 65.872 396.641 65.978C396.637 66.04 396.624 66.104 396.622 66.166C396.618 66.333 396.626 66.496 396.645 66.656C396.918 68.885 399.407 70.355 401.575 69.215Z" fill="#FFC864"/>
<path d="M96.0063 27.227C96.0143 27.076 96.0313 26.926 96.0593 26.778C96.0323 26.925 96.0143 27.075 96.0063 27.227Z" fill="#FFDC69"/>
<path d="M131.529 0.116989C130.653 0.351989 129.859 0.940996 129.394 1.883L126.005 8.74899L129.394 1.883C129.86 0.940996 130.653 0.352989 131.529 0.116989Z" fill="#FFDC69"/>
<path d="M114.089 21.833L98.8973 24.04C98.2043 24.14 97.6163 24.43 97.1543 24.836C97.6163 24.43 98.2043 24.142 98.8973 24.042L114.089 21.833Z" fill="#FFDC69"/>
<path d="M108.624 66.163C108.625 66.102 108.637 66.038 108.643 65.975C108.638 66.038 108.626 66.101 108.624 66.163Z" fill="#FFDC69"/>
<path d="M97.0253 29.802C96.6883 29.474 96.4473 29.105 96.2793 28.716C96.4473 29.103 96.6893 29.474 97.0253 29.802L112.274 44.665L109.083 63.272L112.275 44.663L97.0253 29.802Z" fill="#FFDC69"/>
<path d="M165.95 24.041L144.876 20.979L135.451 1.88399C134.831 0.627987 133.627 0 132.422 0V59.305L113.574 69.214C111.406 70.354 108.917 68.885 108.646 66.652C108.917 68.885 111.406 70.354 113.574 69.214L132.422 59.305L151.27 69.214C153.748 70.517 156.645 68.413 156.172 65.653L152.573 44.665L167.822 29.802C169.827 27.848 168.721 24.443 165.95 24.041Z" fill="#FFDC69"/>
<path d="M113.575 69.215L132.423 59.306V0.000991821C132.122 0.000991821 131.821 0.040988 131.528 0.118988C130.652 0.353988 129.858 0.942995 129.393 1.88499L126.004 8.75099L119.968 20.981L114.087 21.836L98.8953 24.044C98.2023 24.144 97.6143 24.432 97.1523 24.838C96.9213 25.041 96.7223 25.274 96.5573 25.528C96.3103 25.908 96.1403 26.336 96.0573 26.78C96.0293 26.928 96.0123 27.079 96.0043 27.229C95.9783 27.73 96.0703 28.239 96.2783 28.719C96.4463 29.107 96.6873 29.477 97.0243 29.805L112.273 44.668L109.081 63.277L108.673 65.657C108.654 65.766 108.65 65.872 108.641 65.978C108.637 66.04 108.624 66.104 108.622 66.166C108.618 66.333 108.626 66.496 108.645 66.656C108.918 68.885 111.407 70.355 113.575 69.215Z" fill="#FFC864"/>
</svg>
